# xmcd
#
# Track frame offsets: 
#        150
#        11720
#        27333
#        41535
#        60826
#        84415
#        106200
#        139143
#        155767
#        164825
#        188822
#        229422
#        249716
#        284227
#        311277
#
# Disc length: 4406 seconds
#
# Revision: 0
# Processed by: cddbd v1.5.2PL0 Copyright (c) Steve Scherf et al.
# Submitted via: ExactAudioCopy v0.95b4
#
DISCID=d111340f
DTITLE=Kasa Chorych - Blues córek naszych
DYEAR=2006
DGENRE=Blues
TTITLE0=Rodeo Blues
TTITLE1=Droga do sklepu monopolowego
TTITLE2=Zgni³a porzeczka
TTITLE3=Szalona Baska
TTITLE4=Blues Chorego
TTITLE5=Blues córek naszych
TTITLE6=Blues 45%
TTITLE7=Blues zardzewia³ej ¿yletki
TTITLE8=Blues o rannym wstawaniu
TTITLE9=Pierwsze 8 godzin
TTITLE10=Good morning blues
TTITLE11=Herkules blues
TTITLE12=Gdybym by³ wichrem
TTITLE13=Chwile z El
TTITLE14=C.C.Rider - See see rider
EXTD=
EXTT0=
EXTT1=
EXTT2=
EXTT3=
EXTT4=
EXTT5=
EXTT6=
EXTT7=
EXTT8=
EXTT9=
EXTT10=
EXTT11=
EXTT12=
EXTT13=
EXTT14=
PLAYORDER=
